<svg width="300" height="300" viewBox="0 0 300 300" fill="none" xmlns="http://www.w3.org/2000/svg">
<rect width="300" height="300" fill="#5465FF"/>
<g filter="url(#filter0_i_255_115)">
<path d="M246.115 284H53.8848C32.958 284 16 267.042 16 246.115V53.8848C16 32.9579 32.958 16 53.8848 16H246.115C267.042 16 284 32.9579 284 53.8848V246.115C283.987 267.042 267.029 284 246.115 284Z" fill="#5D6DFF"/>
<path d="M246.115 284H53.8848C32.958 284 16 267.042 16 246.115V53.8848C16 32.9579 32.958 16 53.8848 16H246.115C267.042 16 284 32.9579 284 53.8848V246.115C283.987 267.042 267.029 284 246.115 284Z" fill="url(#paint0_linear_255_115)"/>
</g>
<defs>
<filter id="filter0_i_255_115" x="16" y="16" width="268" height="268" filterUnits="userSpaceOnUse" color-interpolation-filters="sRGB">
<feFlood flood-opacity="0" result="BackgroundImageFix"/>
<feBlend mode="normal" in="SourceGraphic" in2="BackgroundImageFix" result="shape"/>
<feColorMatrix in="SourceAlpha" type="matrix" values="0 0 0 0 0 0 0 0 0 0 0 0 0 0 0 0 0 0 127 0" result="hardAlpha"/>
<feOffset/>
<feGaussianBlur stdDeviation="13.5"/>
<feComposite in2="hardAlpha" operator="arithmetic" k2="-1" k3="1"/>
<feColorMatrix type="matrix" values="0 0 0 0 1 0 0 0 0 1 0 0 0 0 1 0 0 0 1 0"/>
<feBlend mode="normal" in2="shape" result="effect1_innerShadow_255_115"/>
</filter>
<linearGradient id="paint0_linear_255_115" x1="114.673" y1="49.6894" x2="209.66" y2="246.482" gradientUnits="userSpaceOnUse">
<stop stop-color="white"/>
<stop offset="1" stop-color="#ABB2FF"/>
</linearGradient>
</defs>
</svg>
