<svg width="303" height="119" viewBox="0 0 303 119" fill="none" xmlns="http://www.w3.org/2000/svg">
<path fill-rule="evenodd" clip-rule="evenodd" d="M45.822 5.06202C42.0432 5.45335 39.3861 7.43173 38.2753 10.6711C37.818 12.019 37.6546 13.1386 37.6002 15.5735C37.5131 19.1281 37.8289 21.9435 38.5585 24.0306C39.0159 25.3676 40.1375 27.4982 41.0632 28.8026C41.5205 29.4439 43.0778 31.4658 44.5152 33.292C49.1434 39.1402 49.7097 39.9989 50.1889 41.9447C50.5482 43.3796 50.6571 46.9559 50.3958 48.6516C50.1671 50.1517 49.8295 50.7822 49.0236 51.1518C48.0653 51.5975 46.7368 51.4018 46.0725 50.717C45.2557 49.88 45.136 48.8908 45.136 42.8904V38.4119H41.1612H37.1755V44.3796C37.1755 47.6624 37.219 50.6844 37.2735 51.0866C37.5022 52.8475 38.0902 54.4672 38.9614 55.6847C40.1811 57.413 42.5006 58.6305 45.234 58.9892C46.2358 59.1197 49.3068 59.1088 50.3958 58.9784C55.0348 58.4131 57.9642 55.4347 58.8354 50.4126C59.1294 48.7277 59.2274 46.2819 59.1076 43.8253C58.9334 40.3033 58.5196 38.4554 57.3979 36.227C56.6139 34.6617 55.4922 33.0746 52.1708 28.8352C47.706 23.1175 47.0417 22.1718 46.4536 20.6391C46.0507 19.5738 45.8982 18.6933 45.8438 17.0628C45.7785 15.3453 45.92 13.8343 46.2032 13.2147C46.5516 12.432 47.4773 12.019 48.5663 12.1494C49.5028 12.269 50.0255 12.6712 50.3086 13.5082C50.4502 13.9321 50.4829 14.6061 50.5047 18.4107L50.5373 22.824H54.4141H58.2909V17.6824C58.2909 12.2146 58.2364 11.4428 57.8009 10.008C57.4415 8.85573 56.9514 8.0296 56.1347 7.2252C55.0675 6.15992 53.837 5.5838 51.8986 5.21421C50.962 5.01854 47.0526 4.93158 45.822 5.06202ZM13 31.9332V58.4131H17.0292H21.0585V46.7493V35.0965H23.8136H26.5688V46.7493V58.4022H30.5436H34.5184V31.9332V5.45335H30.5436H26.5688V16.0301V26.6068H23.8136H21.0585V16.0301V5.45335H17.0292H13V31.9332ZM61.7321 31.9332V58.4131H71.0647H80.3973V54.4129V50.4126H75.0939H69.7906V42.7056V34.9986H73.8198H77.8491V30.9984V26.9981H73.8198H69.7906V20.0303V13.0625H74.8979H80.0053V9.25793V5.45335H70.8687H61.7321V31.9332ZM94.5541 5.56206C94.5541 5.62728 93.6503 12.9212 92.5395 21.7696C91.4287 30.6288 89.9695 42.3252 89.2943 47.7711C88.6191 53.2171 88.042 57.837 88.0093 58.0326L87.9549 58.4022H91.6465H95.3382V58.1848C95.3382 58.0653 95.5778 55.8369 95.8609 53.2389L96.3727 48.5103L99.3783 48.4777L102.384 48.456L102.613 50.5757C102.732 51.7388 102.972 53.9672 103.146 55.5216L103.451 58.3479L107.404 58.3696C109.582 58.3805 111.357 58.3588 111.357 58.3153C111.357 58.2718 110.366 50.8039 109.157 41.7164C107.949 32.6289 106.37 20.7478 105.64 15.3126L104.333 5.44248H99.4437C95.9044 5.45335 94.5541 5.48596 94.5541 5.56206ZM112.533 31.9332V58.4131H116.606H120.679V46.5428V34.6725L122.28 34.7377C124.218 34.8138 124.741 34.9443 125.231 35.4769C125.427 35.6835 125.634 36.0313 125.699 36.227C125.797 36.5096 125.841 38.901 125.884 46.445C125.95 57.0435 125.95 56.9782 126.461 57.9892L126.668 58.3914H130.741C134.063 58.3914 134.814 58.3696 134.814 58.2609C134.814 58.1848 134.694 57.8479 134.563 57.5109C133.986 56.1086 134.008 56.4565 133.943 44.6405C133.877 32.542 133.921 33.4007 133.202 32.1072C132.712 31.2375 131.623 30.281 130.708 29.9114L130.382 29.7809L130.861 29.5418C131.558 29.1939 132.647 28.0526 133.082 27.2264C133.278 26.846 133.54 26.172 133.67 25.7155L133.899 24.8893V18.1606V11.4537L133.67 10.5406C133.159 8.50789 132.091 7.10563 130.512 6.35558C128.694 5.49683 128.269 5.45335 119.677 5.45335H112.533V31.9332ZM135.337 9.25793V13.0625H138.723H142.11V35.7378V58.4131H146.085H150.06V35.7269V13.0625H153.446H156.833V9.25793V5.45335H146.074H135.315V9.25793H135.337ZM167.385 15.1279C166.721 20.4543 165.251 32.2485 164.118 41.336C162.986 50.4235 162.039 57.9892 162.017 58.1305L161.973 58.4022H165.643H169.313L169.378 57.9348C169.411 57.6848 169.64 55.6086 169.879 53.3258C170.119 51.0431 170.347 49.0212 170.38 48.8147L170.435 48.4451H173.418C175.063 48.4451 176.402 48.4777 176.402 48.5212C176.402 48.5647 176.642 50.7931 176.947 53.4671C177.241 56.1521 177.491 58.3587 177.491 58.3696C177.491 58.3805 179.288 58.3914 181.477 58.3914H185.463L185.408 58.174C185.365 57.9783 183.753 45.9776 179.517 14.1495C178.896 9.47534 178.384 5.60554 178.384 5.54031C178.384 5.46422 176.958 5.43161 173.495 5.43161H168.605L167.385 15.1279ZM186.824 31.9332V58.4131H190.461H194.098L194.12 43.2491L194.142 28.0852L197.975 43.2491L201.808 58.4131H205.075H208.342V31.9332V5.45335H204.705H201.068V19.6607C201.068 27.4764 201.046 33.8464 201.024 33.8246C200.981 33.7812 198.291 22.8022 195.623 11.7472C194.828 8.47528 194.164 5.72511 194.131 5.62728C194.087 5.46422 193.826 5.45335 190.45 5.45335H186.824V31.9332V31.9332ZM211.685 31.9332V58.424L218.786 58.3914C225.08 58.3588 225.973 58.337 226.626 58.1848C230.394 57.3261 232.354 55.0107 233.029 50.6192C233.127 49.9561 233.16 46.0754 233.16 31.6506C233.16 14.5083 233.149 13.4538 232.975 12.4864C232.594 10.3123 231.908 8.84486 230.71 7.64914C229.773 6.72517 228.826 6.21427 227.269 5.79033L226.289 5.52944L218.992 5.49683L211.696 5.46422V31.9332H211.685ZM124.283 12.8125C124.937 13.0082 125.438 13.4973 125.666 14.1604C125.83 14.6387 125.852 15.0735 125.852 19.7912V24.9111L125.623 25.4981C125.329 26.2264 124.73 26.8242 124.087 27.0416C123.739 27.1612 123.249 27.2047 122.16 27.2047H120.701V19.8781V12.5407L122.247 12.5951C123.205 12.6386 123.978 12.7147 124.283 12.8125ZM223.414 12.8995C224.034 13.1821 224.35 13.5952 224.623 14.4756C224.797 15.03 224.797 15.8888 224.797 31.7376V48.4125L224.557 48.9995C224.427 49.3365 224.154 49.7495 223.915 49.9887C223.338 50.5648 222.782 50.7061 221.083 50.7061H219.722V31.618V12.5407L221.29 12.5951C222.706 12.6386 222.935 12.6712 223.414 12.8995ZM100.108 27.8352C100.511 31.531 100.99 35.9117 101.175 37.564L101.502 40.5642H99.3565C98.1804 40.5642 97.2112 40.5424 97.2112 40.5207C97.2112 40.499 97.4073 38.6402 97.6468 36.4009C98.2131 31.1614 99.2694 21.2261 99.2803 21.0521C99.3021 20.6391 99.4328 21.7043 100.108 27.8352ZM173.756 24.5306C174.736 33.3572 175.52 40.4772 175.52 40.5098C175.52 40.5316 174.551 40.5533 173.353 40.5533H171.186L171.24 40.1837C171.295 39.8359 172.449 29.02 173.016 23.5632C173.168 22.1283 173.299 20.976 173.32 20.9978C173.364 21.0195 173.549 22.6066 173.756 24.5306ZM66.491 59.674C63.9318 60.0328 61.8737 61.0328 60.6213 62.5547C59.6195 63.7613 59.0096 65.1418 58.6285 67.0875C58.476 67.8593 58.4434 68.4681 58.4542 70.8378C58.4651 73.8271 58.574 75.3272 58.9007 76.8273C59.4234 79.197 60.5451 81.5776 62.2657 83.9038C62.5379 84.2842 63.9645 86.0996 65.4238 87.9475C69.551 93.187 70.0955 93.9588 70.6836 95.4915C71.1845 96.785 71.2716 97.3611 71.3369 99.8504C71.4132 103.068 71.2172 104.394 70.5202 105.253C70.1499 105.709 69.6926 105.927 68.9303 105.97C67.4057 106.068 66.4147 105.253 66.1534 103.677C66.0989 103.361 66.0554 100.84 66.0554 98.0677V93.0239H62.0261H57.9969V98.8504C57.9969 104.84 58.0404 105.709 58.3889 107.155C58.6394 108.188 59.4997 109.971 60.0768 110.645C61.2856 112.069 62.8755 112.96 65.0426 113.416C66.2949 113.677 69.6055 113.797 71.0102 113.612C74.691 113.156 77.0759 111.547 78.5678 108.525C79.7657 106.09 80.1904 102.84 79.929 97.9046C79.6895 93.2631 78.7856 90.9586 75.5078 86.6431C75.1048 86.1104 73.7872 84.4147 72.6002 82.8929C68.8432 78.0882 68.3749 77.436 67.7106 76.1098C66.9919 74.675 66.7741 73.664 66.687 71.4248C66.589 68.8703 66.8939 67.5767 67.7106 67.0332C68.4838 66.5332 69.9648 66.6201 70.5747 67.1962C71.3261 67.9246 71.3696 68.2833 71.3696 73.2836V77.4143H75.3117H79.2539L79.2103 72.077C79.1559 66.4027 79.1232 65.9462 78.6331 64.5222C77.9362 62.4894 76.5641 61.0111 74.7237 60.3045C73.3189 59.7719 72.4368 59.6523 69.649 59.6197C68.2442 59.6088 66.8285 59.6306 66.491 59.674ZM101.741 59.6849C99.3021 59.9349 97.4073 60.8046 95.9589 62.3481C95.0115 63.3482 94.4452 64.3156 93.9661 65.7505C93.182 68.0659 93.2364 66.5114 93.2038 86.6866C93.182 99.3069 93.2038 104.959 93.28 105.623C93.7156 109.438 95.7738 112.373 98.6814 113.33C99.2041 113.503 99.6179 113.547 100.957 113.58C102.863 113.623 103.233 113.547 104.595 112.851C106.141 112.058 107.883 110.177 108.689 108.427L108.972 107.807L109.125 108.34C109.255 108.807 110.029 111.655 110.29 112.645L110.388 113.014H112.697H115.005V96.9263V80.8384H109.31H103.614V84.8821V88.9258H105.433H107.252V95.9371C107.252 102.666 107.241 102.97 107.056 103.579C106.577 105.101 105.03 105.916 103.462 105.459C102.678 105.231 102.155 104.699 101.839 103.785L101.611 103.122V86.2518V69.3812L101.829 68.8485C102.253 67.8267 103.005 67.2941 104.05 67.2941C105.455 67.2941 106.261 67.9354 106.555 69.3159C106.62 69.642 106.664 71.1204 106.664 73.3379V76.849H110.638H114.613V73.0662C114.613 67.3376 114.352 65.6092 113.143 63.4025C112.457 62.1525 111.02 60.9133 109.604 60.3589C107.872 59.6849 104.497 59.4023 101.741 59.6849ZM157.585 59.6849C152.935 60.3045 150.267 63.0112 149.679 67.7071C149.548 68.7398 149.548 73.3705 149.679 74.5771C150.071 78.1643 151.04 80.6753 153.207 83.6538C153.621 84.2299 155.025 86.0344 156.321 87.6649C160.198 92.5674 160.873 93.4913 161.527 94.8501C162.267 96.3719 162.452 97.5242 162.452 100.59C162.452 103.622 162.224 104.753 161.494 105.449C160.568 106.329 158.576 106.133 157.846 105.09C157.203 104.166 157.203 104.155 157.171 98.3177L157.138 93.0239H153.109H149.09V98.709C149.09 105.492 149.156 106.307 149.885 108.286C150.974 111.253 153.479 113.09 157.084 113.558C158.532 113.743 161.2 113.753 162.507 113.569C167.233 112.906 169.988 109.971 170.87 104.644C171.077 103.416 171.164 98.3721 171.012 96.8068C170.631 92.9804 169.563 90.4911 166.645 86.6648C166.155 86.0126 164.674 84.1212 163.367 82.4472C159.828 77.9143 159.066 76.8164 158.521 75.4685C157.911 73.9575 157.879 73.7075 157.879 71.0987C157.879 68.3702 157.977 67.8376 158.586 67.2506C159.36 66.5114 160.96 66.5223 161.766 67.2832C162.431 67.9137 162.452 68.0985 162.452 73.0662V77.436H166.384H170.315V72.5879C170.315 69.9247 170.271 67.3158 170.217 66.8049C169.803 62.8482 167.919 60.6632 164.26 59.8806C163.454 59.7067 162.888 59.6632 160.786 59.6414C159.403 59.6088 157.966 59.6306 157.585 59.6849ZM180.976 59.7175C176.936 60.3589 174.551 62.6634 173.527 66.9354C173.32 67.8158 173.32 67.8267 173.288 85.9039C173.255 102.394 173.266 104.101 173.418 105.166C173.702 107.188 174.399 109.09 175.281 110.297C175.771 110.96 176.892 111.971 177.546 112.351C179.19 113.297 181.096 113.699 184.025 113.699C186.53 113.699 188.196 113.406 189.633 112.699C192.149 111.471 193.684 109.068 194.283 105.427C194.458 104.394 194.469 103.698 194.469 97.1546V90.002H190.537H186.606L186.573 96.8502C186.541 103.568 186.541 103.709 186.334 104.199C185.855 105.362 185.179 105.818 183.971 105.829C183.067 105.829 182.468 105.546 182.021 104.905C181.401 104.014 181.433 104.872 181.433 86.2952C181.433 70.153 181.444 69.3486 181.618 68.7942C181.836 68.0985 182.348 67.5441 182.914 67.3919C183.132 67.3376 183.622 67.2832 184.003 67.2832C184.907 67.2832 185.637 67.6202 186.04 68.2289C186.562 69.0007 186.595 69.479 186.595 75.0119V80.0557H190.526H194.458V74.2293C194.458 68.0876 194.414 67.3049 193.978 65.6201C193.456 63.6199 192.149 61.8264 190.494 60.848C189.666 60.3589 188.185 59.8915 186.911 59.7175C185.593 59.5436 182.119 59.5327 180.976 59.7175ZM230.645 59.6414C226.038 60.1306 223.24 62.609 222.194 67.131C221.737 69.1094 221.748 68.7181 221.748 86.5344C221.748 102.459 221.758 103.47 221.933 104.525C222.499 108.036 223.664 110.308 225.657 111.797C227.585 113.243 229.795 113.764 233.509 113.666C236.895 113.58 238.66 113.047 240.435 111.569C242.144 110.145 243.201 107.992 243.734 104.818L243.952 103.503V86.5344C243.952 70.7943 243.941 69.4899 243.778 68.5007C243.092 64.3265 241.676 62.022 238.943 60.6632C237.919 60.1523 236.754 59.8371 235.262 59.6632C234.489 59.5871 231.418 59.5653 230.645 59.6414ZM254.722 59.7175C252.054 60.1306 250.323 61.0111 248.885 62.7068C247.872 63.9026 247.186 65.4244 246.696 67.6093L246.435 68.7942L246.402 85.8061C246.38 97.8068 246.402 103.144 246.478 103.894C246.674 105.84 247.067 107.264 247.807 108.775C248.373 109.916 248.95 110.666 249.887 111.482C251.695 113.036 253.982 113.699 257.543 113.699C261.474 113.699 263.793 112.927 265.645 111.003C267.278 109.308 268.171 106.938 268.487 103.372C268.552 102.633 268.574 96.6002 268.552 85.7191L268.52 69.1855L268.302 68.0115C267.801 65.294 266.984 63.5004 265.623 62.1307C264.49 60.9893 262.857 60.1849 260.897 59.8154C259.775 59.598 255.876 59.5327 254.722 59.7175ZM13 86.5344V113.014H19.2181C22.6375 113.014 25.9589 112.971 26.6123 112.916C30.9574 112.558 33.3531 110.384 34.2461 105.981L34.4748 104.872V86.3931C34.4748 68.7398 34.4639 67.8702 34.2897 66.9354C33.5274 62.8916 31.5236 60.848 27.7013 60.2067C26.9826 60.0871 25.6104 60.0654 19.9151 60.0654H13V86.5344ZM37.5675 86.5344V113.014H46.9546H56.3416V108.971V104.927H50.9838H45.626V97.2742V89.6215H49.6552H53.6845V85.6213V81.621H49.6552H45.626V74.6532V67.6854H50.7878H55.9496V63.8808V60.0762H46.7585H37.5675V86.5344V86.5344ZM82.1723 86.5344V113.014H86.2452H90.318V86.5344V60.0654H86.2452H82.1723V86.5344ZM117.75 86.5344V113.014H121.387H125.024L125.046 97.8938L125.067 82.7733L128.89 97.8938L132.712 113.014H135.99H139.268V86.5344V60.0654H135.576H131.885L131.939 74.2836C131.983 83.8929 131.961 88.4367 131.895 88.3062C131.808 88.1214 130.022 80.8819 126.494 66.294C125.677 62.9242 125.013 60.1523 125.013 60.1306C125.013 60.098 123.38 60.0762 121.376 60.0762H117.739V86.5344H117.75ZM197.137 86.5344V113.014H201.166H205.195V101.361V89.7085H207.896H210.596V101.361V113.014H214.626H218.655V86.5344V60.0654H214.626H210.596V70.6421V81.2188H207.896H205.195V70.6421V60.0654H201.166H197.137V86.5344ZM271.623 86.5344V113.014H280.618H289.602V108.916V104.818H284.637H279.671V82.4472V60.0654H275.641H271.612V86.5344H271.623ZM24.5432 67.381C25.0986 67.5441 25.7193 68.218 25.9154 68.8594C26.0025 69.142 26.1114 69.8812 26.1658 70.5008C26.2856 72.0335 26.2856 100.666 26.1658 102.057C26.0134 103.807 25.6431 104.535 24.7066 104.992C24.1839 105.242 24.0641 105.264 22.6049 105.296L21.0585 105.329V86.2409V67.1528L22.6049 67.2071C23.4543 67.2397 24.3254 67.3158 24.5432 67.381ZM233.803 67.3919C234.282 67.5332 234.924 68.0767 235.153 68.5333C235.676 69.5551 235.654 68.8485 235.654 86.5018C235.654 97.7633 235.621 103.014 235.545 103.405C235.305 104.72 234.717 105.47 233.716 105.753C232.441 106.123 231.08 105.579 230.514 104.481C229.98 103.438 230.002 104.394 229.969 87.404C229.948 77.7078 229.969 71.2726 230.035 70.5769C230.165 69.1094 230.394 68.4898 231.026 67.9137C231.287 67.6745 231.646 67.4354 231.832 67.381C232.289 67.2615 233.345 67.2506 233.803 67.3919ZM258.751 67.555C259.252 67.805 259.753 68.4137 259.982 69.0333C260.319 69.979 260.341 71.0552 260.309 87.2736L260.276 103.318L260.047 103.948C259.797 104.622 259.448 105.177 259.089 105.449C258.958 105.546 258.577 105.699 258.229 105.786C256.704 106.177 255.332 105.394 254.853 103.872C254.7 103.372 254.689 102.155 254.689 86.4583V69.566L254.918 68.979C255.201 68.2615 255.909 67.5441 256.464 67.3919C257.085 67.218 258.239 67.2941 258.751 67.555Z" fill="#5465FF"/>
</svg>
