<svg width="300" height="300" viewBox="0 0 300 300" fill="none" xmlns="http://www.w3.org/2000/svg">
<rect width="300" height="300" fill="#5465FF"/>
<g filter="url(#filter0_i_280_204)">
<path d="M140.243 32.1159C143.318 22.628 156.682 22.628 159.757 32.1159L185.729 112.244L269.719 112.244C279.664 112.244 283.794 125.031 275.743 130.895L207.811 180.37L233.769 260.456C236.846 269.948 226.035 277.85 217.989 271.991L150 222.474L82.0109 271.991C73.9651 277.85 63.1539 269.948 66.2305 260.456L92.1891 180.37L24.2573 130.895C16.206 125.031 20.3356 112.244 30.2807 112.244L114.271 112.244L140.243 32.1159Z" fill="url(#paint0_linear_280_204)"/>
</g>
<defs>
<filter id="filter0_i_280_204" x="20" y="25" width="260" height="249" filterUnits="userSpaceOnUse" color-interpolation-filters="sRGB">
<feFlood flood-opacity="0" result="BackgroundImageFix"/>
<feBlend mode="normal" in="SourceGraphic" in2="BackgroundImageFix" result="shape"/>
<feColorMatrix in="SourceAlpha" type="matrix" values="0 0 0 0 0 0 0 0 0 0 0 0 0 0 0 0 0 0 127 0" result="hardAlpha"/>
<feOffset/>
<feGaussianBlur stdDeviation="13.5"/>
<feComposite in2="hardAlpha" operator="arithmetic" k2="-1" k3="1"/>
<feColorMatrix type="matrix" values="0 0 0 0 1 0 0 0 0 1 0 0 0 0 1 0 0 0 1 0"/>
<feBlend mode="normal" in2="shape" result="effect1_innerShadow_280_204"/>
</filter>
<linearGradient id="paint0_linear_280_204" x1="110.099" y1="38.291" x2="209.32" y2="253.911" gradientUnits="userSpaceOnUse">
<stop stop-color="white"/>
<stop offset="1" stop-color="#ABB2FF"/>
</linearGradient>
</defs>
</svg>
