<svg width="577" height="578" viewBox="0 0 577 578" fill="none" xmlns="http://www.w3.org/2000/svg">
<g filter="url(#filter0_di_54_5)">
<path d="M194.178 421H382.822C403.358 421 420 404.295 420 383.681V194.319C420 173.705 403.358 157 382.822 157H194.178C173.642 157 157 173.705 157 194.319V383.681C157.013 404.295 173.655 421 194.178 421Z" fill="white"/>
<path d="M194.178 421H382.822C403.358 421 420 404.295 420 383.681V194.319C420 173.705 403.358 157 382.822 157H194.178C173.642 157 157 173.705 157 194.319V383.681C157.013 404.295 173.655 421 194.178 421Z" fill="url(#paint0_linear_54_5)"/>
</g>
<defs>
<filter id="filter0_di_54_5" x="0" y="0" width="577" height="578" filterUnits="userSpaceOnUse" color-interpolation-filters="sRGB">
<feFlood flood-opacity="0" result="BackgroundImageFix"/>
<feColorMatrix in="SourceAlpha" type="matrix" values="0 0 0 0 0 0 0 0 0 0 0 0 0 0 0 0 0 0 127 0" result="hardAlpha"/>
<feOffset/>
<feGaussianBlur stdDeviation="78.5"/>
<feComposite in2="hardAlpha" operator="out"/>
<feColorMatrix type="matrix" values="0 0 0 0 1 0 0 0 0 1 0 0 0 0 1 0 0 0 0.7 0"/>
<feBlend mode="normal" in2="BackgroundImageFix" result="effect1_dropShadow_54_5"/>
<feBlend mode="normal" in="SourceGraphic" in2="effect1_dropShadow_54_5" result="shape"/>
<feColorMatrix in="SourceAlpha" type="matrix" values="0 0 0 0 0 0 0 0 0 0 0 0 0 0 0 0 0 0 127 0" result="hardAlpha"/>
<feOffset/>
<feGaussianBlur stdDeviation="13.5"/>
<feComposite in2="hardAlpha" operator="arithmetic" k2="-1" k3="1"/>
<feColorMatrix type="matrix" values="0 0 0 0 1 0 0 0 0 1 0 0 0 0 1 0 0 0 1 0"/>
<feBlend mode="normal" in2="shape" result="effect2_innerShadow_54_5"/>
</filter>
<linearGradient id="paint0_linear_54_5" x1="323.168" y1="190.187" x2="229.378" y2="383.763" gradientUnits="userSpaceOnUse">
<stop stop-color="white"/>
<stop offset="1" stop-color="#ABB2FF"/>
</linearGradient>
</defs>
</svg>
